<svg width="26" height="28" viewBox="0 0 26 28" fill="none" xmlns="http://www.w3.org/2000/svg">
<path d="M20.3922 6.5C19.9866 6.49968 19.5978 6.34154 19.3111 6.06031C19.0243 5.77907 18.8631 5.39773 18.8627 5V0H6.11765C5.71212 0.000313834 5.32329 0.15845 5.03654 0.439687C4.74979 0.720923 4.58856 1.10227 4.58824 1.5V26.5C4.59044 26.8972 4.75229 27.2774 5.03863 27.5583C5.32497 27.8391 5.7127 27.9978 6.11765 28H24.4706C24.8758 27.9988 25.2642 27.8404 25.5507 27.5594C25.8373 27.2783 25.9988 26.8975 26 26.5V6.5H20.3922ZM21.4118 12C21.5456 12.002 21.6733 12.0556 21.7672 12.1492C21.8611 12.2427 21.9137 12.3687 21.9137 12.5C21.9137 12.6313 21.8611 12.7573 21.7672 12.8509C21.6732 12.9444 21.5456 12.998 21.4117 13H8.66667C8.53309 12.9976 8.40581 12.9438 8.31221 12.8503C8.21862 12.7568 8.16618 12.631 8.16618 12.5C8.16618 12.369 8.21862 12.2432 8.31221 12.1497C8.40581 12.0562 8.53309 12.0024 8.66667 12H21.4118ZM21.4117 15.5H8.66667C8.53309 15.4976 8.40581 15.4438 8.31221 15.3503C8.21862 15.2568 8.16618 15.131 8.16618 15C8.16618 14.869 8.21862 14.7432 8.31221 14.6497C8.40581 14.5562 8.53309 14.5024 8.66667 14.5H21.4118C21.5456 14.502 21.6733 14.5556 21.7672 14.6492C21.8611 14.7427 21.9137 14.8687 21.9137 15C21.9137 15.1313 21.8611 15.2573 21.7672 15.3509C21.6732 15.4444 21.5456 15.498 21.4117 15.5ZM21.4117 18H8.66667C8.53309 17.9976 8.40581 17.9438 8.31221 17.8503C8.21862 17.7568 8.16618 17.631 8.16618 17.5C8.16618 17.369 8.21862 17.2432 8.31221 17.1497C8.40581 17.0562 8.53309 17.0024 8.66667 17H21.4118C21.5456 17.002 21.6733 17.0556 21.7672 17.1492C21.8611 17.2427 21.9137 17.3687 21.9137 17.5C21.9137 17.6313 21.8611 17.7573 21.7672 17.8509C21.6732 17.9444 21.5456 17.998 21.4117 18ZM8.66667 9.5H17.8431C17.9783 9.5 18.108 9.55268 18.2036 9.64645C18.2992 9.74021 18.3529 9.86739 18.3529 10C18.3529 10.1326 18.2992 10.2598 18.2036 10.3536C18.108 10.4473 17.9783 10.5 17.8431 10.5H8.66667C8.53309 10.4976 8.40581 10.4438 8.31221 10.3503C8.21862 10.2568 8.16618 10.131 8.16618 10C8.16618 9.86897 8.21862 9.74317 8.31221 9.64966C8.40581 9.55616 8.53309 9.50242 8.66667 9.5ZM13.2549 20.5H8.66667C8.53309 20.4976 8.40581 20.4438 8.31222 20.3503C8.21862 20.2568 8.16619 20.131 8.16619 20C8.1662 19.8689 8.21864 19.7432 8.31224 19.6497C8.40584 19.5561 8.53312 19.5024 8.6667 19.5H13.2549C13.3888 19.5019 13.5165 19.5555 13.6105 19.649C13.7045 19.7426 13.7572 19.8687 13.7572 20C13.7572 20.1313 13.7045 20.2574 13.6105 20.351C13.5165 20.4445 13.3888 20.4981 13.2549 20.5ZM15.2941 20C15.2939 19.9343 15.3069 19.8692 15.3324 19.8084C15.358 19.7476 15.3955 19.6924 15.4429 19.6459C15.4903 19.5995 15.5466 19.5626 15.6086 19.5376C15.6705 19.5125 15.7369 19.4998 15.8039 19.5H21.4118C21.547 19.5 21.6766 19.5527 21.7723 19.6464C21.8679 19.7402 21.9216 19.8674 21.9216 20C21.9216 20.1326 21.8679 20.2598 21.7723 20.3536C21.6766 20.4473 21.547 20.5 21.4118 20.5H15.8039C15.7369 20.5002 15.6705 20.4875 15.6086 20.4624C15.5466 20.4374 15.4903 20.4005 15.4429 20.3541C15.3955 20.3076 15.358 20.2524 15.3324 20.1916C15.3069 20.1308 15.2939 20.0657 15.2941 20ZM21.9216 24.5H17.8431C17.7096 24.4976 17.5823 24.4438 17.4887 24.3503C17.3951 24.2568 17.3427 24.131 17.3427 24C17.3427 23.8689 17.3951 23.7432 17.4887 23.6497C17.5823 23.5561 17.7096 23.5024 17.8432 23.5H21.9216C22.0555 23.5019 22.1832 23.5555 22.2772 23.649C22.3712 23.7426 22.4239 23.8687 22.4239 24C22.4239 24.1313 22.3712 24.2574 22.2772 24.351C22.1832 24.4445 22.0555 24.4981 21.9216 24.5ZM19.8824 5V0.28L25.7145 5.5H20.3922C20.2571 5.4996 20.1276 5.4468 20.0321 5.35312C19.9366 5.25943 19.8828 5.13249 19.8824 5ZM3.56863 26.5C3.56644 27.0413 3.74555 27.5683 4.07843 28H1.52941C1.12389 27.9997 0.735065 27.8415 0.448315 27.5603C0.161566 27.2791 0.000326728 26.8977 0 26.5V5C0.000319987 4.60227 0.161557 4.22092 0.448308 3.93969C0.735059 3.65845 1.12388 3.50031 1.52941 3.5H3.56863V26.5Z" fill="url(#paint0_linear_3376_27371)"/>
<defs>
<linearGradient id="paint0_linear_3376_27371" x1="13" y1="0" x2="13" y2="28" gradientUnits="userSpaceOnUse">
<stop stop-color="#FC8BAD"/>
<stop offset="1" stop-color="#A654CD"/>
</linearGradient>
</defs>
</svg>
