<svg width="69" height="107" viewBox="0 0 69 107" fill="none" xmlns="http://www.w3.org/2000/svg">
<g opacity="0.6">
<path d="M19.2631 2.75174L15.1211 0H62.7314L65.9616 1.4034L19.2631 2.75174Z" fill="url(#paint0_linear_1_49560)"/>
<path d="M40.5232 42.044L37.293 40.6406H65.422L68.6521 42.044H40.5232Z" fill="url(#paint1_linear_1_49560)"/>
<path d="M8.36691 107L5.13672 105.597L18.4588 61.4834L21.689 62.8866L8.36691 107Z" fill="url(#paint2_linear_1_49560)"/>
<path d="M3.23019 62.8854L0 61.4822L15.1189 0L19.7525 2.0131L3.23019 62.8854Z" fill="url(#paint3_linear_1_49560)"/>
<path d="M68.6506 42.0447L8.36801 107L21.6901 62.8863H3.22656L18.3454 1.4043H65.9558L40.5216 42.0447H68.6506Z" fill="url(#paint4_linear_1_49560)"/>
</g>
<defs>
<linearGradient id="paint0_linear_1_49560" x1="15.1212" y1="1.37592" x2="65.9616" y2="1.37592" gradientUnits="userSpaceOnUse">
<stop stop-color="#E88F00"/>
<stop offset="1" stop-color="#FDA50D"/>
</linearGradient>
<linearGradient id="paint1_linear_1_49560" x1="37.2929" y1="41.3424" x2="68.6521" y2="41.3424" gradientUnits="userSpaceOnUse">
<stop stop-color="#E88F00"/>
<stop offset="1" stop-color="#FDA50D"/>
</linearGradient>
<linearGradient id="paint2_linear_1_49560" x1="13.7448" y1="84.3478" x2="10.7707" y2="83.3961" gradientUnits="userSpaceOnUse">
<stop stop-color="#E88F00"/>
<stop offset="1" stop-color="#FDA50D"/>
</linearGradient>
<linearGradient id="paint3_linear_1_49560" x1="0" y1="31.4428" x2="19.7526" y2="31.4428" gradientUnits="userSpaceOnUse">
<stop stop-color="#E88F00"/>
<stop offset="1" stop-color="#FDA50D"/>
</linearGradient>
<linearGradient id="paint4_linear_1_49560" x1="35.9386" y1="5.78137" x2="35.9386" y2="91.1027" gradientUnits="userSpaceOnUse">
<stop stop-color="#FDC10D"/>
<stop offset="1" stop-color="#FDA50D"/>
</linearGradient>
</defs>
</svg>
